<svg xmlns="http://www.w3.org/2000/svg" xmlns:xlink="http://www.w3.org/1999/xlink" version="1.1" width="1000" height="1000" viewBox="0 0 1000 1000" xml:space="preserve">
<desc>Created with Fabric.js 3.5.0</desc>
<defs>
</defs>
<rect x="0" y="0" width="100%" height="100%" fill="#ffffff"/>
<g transform="matrix(1.7756 0 0 1.5182 500.0081 447.55)" id="634352">
<path style="stroke: none; stroke-width: 1; stroke-dasharray: none; stroke-linecap: butt; stroke-dashoffset: 0; stroke-linejoin: miter; stroke-miterlimit: 4; is-custom-font: none; font-file-url: none; fill: rgb(0,0,0); fill-rule: nonzero; opacity: 1;" vector-effect="non-scaling-stroke" transform=" translate(-256, -256)" d="M 256 80 C 149.9 80 62.4 159.4 49.6 262 c 9.4 -3.8 19.6 -6 30.4 -6 c 26.5 0 48 21.5 48 48 V 432 c 0 26.5 -21.5 48 -48 48 c -44.2 0 -80 -35.8 -80 -80 V 384 V 336 V 288 C 0 146.6 114.6 32 256 32 s 256 114.6 256 256 v 48 v 48 v 16 c 0 44.2 -35.8 80 -80 80 c -26.5 0 -48 -21.5 -48 -48 V 304 c 0 -26.5 21.5 -48 48 -48 c 10.8 0 21 2.1 30.4 6 C 449.6 159.4 362.1 80 256 80 z" stroke-linecap="round"/>
</g>
<g transform="matrix(8.101 0 0 7.9937 499.9992 602.1752)" id="587627">
<g style="" vector-effect="non-scaling-stroke">
		<g transform="matrix(1 0 0 1 14.5 -0.6)" id="Layer_1">
<path style="stroke: none; stroke-width: 1; stroke-dasharray: none; stroke-linecap: butt; stroke-dashoffset: 0; stroke-linejoin: miter; stroke-miterlimit: 4; is-custom-font: none; font-file-url: none; fill: rgb(240,144,139); fill-rule: nonzero; opacity: 1;" transform=" translate(-46.5, -31.4)" d="M 59 33.6 c 0 -2.7 -1.7 -5 -4 -6 c 0.9 -0.9 1.5 -2.2 1.5 -3.6 c 0 -2.8 -2.3 -5.1 -5.1 -5.1 c -0.2 0 -0.4 0 -0.5 0 c 0.3 -0.7 0.5 -1.5 0.5 -2.3 c 0 -2.8 -2.3 -5.1 -5.1 -5.1 c -0.9 0 -1.7 0.2 -2.4 0.6 c -0.7 -2 -2.6 -3.7 -4.8 -3.7 c -2.8 0 -5 2.6 -5.1 4.6 H 34 v 35 h 0.1 c 0 0 0 0 0 0 c 0 3.6 2.9 6.4 6.5 6.4 c 3.2 0 5.8 -2.3 6.4 -5.3 c 0.6 0.2 1.3 0.3 2 0.3 c 3.6 0 6.5 -2.9 6.5 -6.5 c 0 -1.1 -0.3 -2.2 -0.8 -3.2 C 57.1 38.9 59 36.5 59 33.6 z" stroke-linecap="round"/>
</g>
		<g transform="matrix(1 0 0 1 -14.5 -0.6)" id="Layer_1">
<path style="stroke: none; stroke-width: 1; stroke-dasharray: none; stroke-linecap: butt; stroke-dashoffset: 0; stroke-linejoin: miter; stroke-miterlimit: 4; is-custom-font: none; font-file-url: none; fill: rgb(240,144,139); fill-rule: nonzero; opacity: 1;" transform=" translate(-17.5, -31.4)" d="M 5 33.6 c 0 -2.7 1.7 -5 4 -6 c -0.9 -0.9 -1.5 -2.2 -1.5 -3.6 c 0 -2.8 2.3 -5.1 5.1 -5.1 c 0.2 0 0.4 0 0.5 0 c -0.3 -0.7 -0.5 -1.5 -0.5 -2.3 c 0 -2.8 2.3 -5.1 5.1 -5.1 c 0.9 0 1.7 0.2 2.4 0.6 c 0.7 -2 2.6 -3.7 4.8 -3.7 c 2.8 0 5 2.6 5.1 4.6 h 0 v 35 h -0.1 c 0 0 0 0 0 0 c 0 3.6 -2.9 6.4 -6.5 6.4 c -3.2 0 -5.8 -2.3 -6.4 -5.3 c -0.6 0.2 -1.3 0.3 -2 0.3 c -3.6 0 -6.5 -2.9 -6.5 -6.5 c 0 -1.1 0.3 -2.2 0.8 -3.2 C 6.9 38.9 5 36.5 5 33.6 z" stroke-linecap="round"/>
</g>
		<g transform="matrix(1 0 0 1 14.5 -0.6)" id="Layer_1">
<path style="stroke: rgb(0,0,0); stroke-width: 2; stroke-dasharray: none; stroke-linecap: round; stroke-dashoffset: 0; stroke-linejoin: round; stroke-miterlimit: 10; is-custom-font: none; font-file-url: none; fill: none; fill-rule: nonzero; opacity: 1;" transform=" translate(-46.5, -31.4)" d="M 59 33.6 c 0 -2.7 -1.7 -5 -4 -6 c 0.9 -0.9 1.5 -2.2 1.5 -3.6 c 0 -2.8 -2.3 -5.1 -5.1 -5.1 c -0.2 0 -0.4 0 -0.5 0 c 0.3 -0.7 0.5 -1.5 0.5 -2.3 c 0 -2.8 -2.3 -5.1 -5.1 -5.1 c -0.9 0 -1.7 0.2 -2.4 0.6 c -0.7 -2 -2.6 -3.7 -4.8 -3.7 c -2.8 0 -5 2.6 -5.1 4.6 H 34 v 35 h 0.1 c 0 0 0 0 0 0 c 0 3.6 2.9 6.4 6.5 6.4 c 3.2 0 5.8 -2.3 6.4 -5.3 c 0.6 0.2 1.3 0.3 2 0.3 c 3.6 0 6.5 -2.9 6.5 -6.5 c 0 -1.1 -0.3 -2.2 -0.8 -3.2 C 57.1 38.9 59 36.5 59 33.6 z" stroke-linecap="round"/>
</g>
		<g transform="matrix(1 0 0 1 -14.5 -0.6)" id="Layer_1">
<path style="stroke: rgb(0,0,0); stroke-width: 2; stroke-dasharray: none; stroke-linecap: round; stroke-dashoffset: 0; stroke-linejoin: round; stroke-miterlimit: 10; is-custom-font: none; font-file-url: none; fill: none; fill-rule: nonzero; opacity: 1;" transform=" translate(-17.5, -31.4)" d="M 5 33.6 c 0 -2.7 1.7 -5 4 -6 c -0.9 -0.9 -1.5 -2.2 -1.5 -3.6 c 0 -2.8 2.3 -5.1 5.1 -5.1 c 0.2 0 0.4 0 0.5 0 c -0.3 -0.7 -0.5 -1.5 -0.5 -2.3 c 0 -2.8 2.3 -5.1 5.1 -5.1 c 0.9 0 1.7 0.2 2.4 0.6 c 0.7 -2 2.6 -3.7 4.8 -3.7 c 2.8 0 5 2.6 5.1 4.6 h 0 v 35 h -0.1 c 0 0 0 0 0 0 c 0 3.6 -2.9 6.4 -6.5 6.4 c -3.2 0 -5.8 -2.3 -6.4 -5.3 c -0.6 0.2 -1.3 0.3 -2 0.3 c -3.6 0 -6.5 -2.9 -6.5 -6.5 c 0 -1.1 0.3 -2.2 0.8 -3.2 C 6.9 38.9 5 36.5 5 33.6 z" stroke-linecap="round"/>
</g>
		<g transform="matrix(1 0 0 1 -12.823 10.1303)" id="Layer_1">
<path style="stroke: rgb(0,0,0); stroke-width: 2; stroke-dasharray: none; stroke-linecap: round; stroke-dashoffset: 0; stroke-linejoin: round; stroke-miterlimit: 10; is-custom-font: none; font-file-url: none; fill: none; fill-rule: nonzero; opacity: 1;" transform=" translate(-19.177, -42.1303)" d="M 15.5 35.2 c 0 0 4.6 -0.7 6.6 3.8 c 2.2 5 -0.7 8.7 -5 10.1" stroke-linecap="round"/>
</g>
		<g transform="matrix(1 0 0 1 -12.6 -10.6698)" id="Layer_1">
<path style="stroke: rgb(0,0,0); stroke-width: 2; stroke-dasharray: none; stroke-linecap: round; stroke-dashoffset: 0; stroke-linejoin: round; stroke-miterlimit: 10; is-custom-font: none; font-file-url: none; fill: none; fill-rule: nonzero; opacity: 1;" transform=" translate(-19.4, -21.3302)" d="M 25.6 20.6 c 0 0 -2.5 4 -7 3 s -5.4 -4.7 -5.4 -4.7" stroke-linecap="round"/>
</g>
		<g transform="matrix(1 0 0 1 -9.65 -5.3)" id="Layer_1">
<path style="stroke: rgb(0,0,0); stroke-width: 2; stroke-dasharray: none; stroke-linecap: round; stroke-dashoffset: 0; stroke-linejoin: round; stroke-miterlimit: 10; is-custom-font: none; font-file-url: none; fill: none; fill-rule: nonzero; opacity: 1;" transform=" translate(-22.35, -26.7)" d="M 25.6 29.6 c -0.1 -0.1 -1.3 -4.3 -6.5 -5.8" stroke-linecap="round"/>
</g>
		<g transform="matrix(1 0 0 1 16.8601 3.0156)" id="Layer_1">
<path style="stroke: rgb(0,0,0); stroke-width: 2; stroke-dasharray: none; stroke-linecap: round; stroke-dashoffset: 0; stroke-linejoin: round; stroke-miterlimit: 10; is-custom-font: none; font-file-url: none; fill: none; fill-rule: nonzero; opacity: 1;" transform=" translate(-48.8601, -35.0156)" d="M 43.4 30.2 c 0 0 -1.2 4.4 2.6 7.8 c 1.8 1.6 5.4 2.1 8.5 1.7" stroke-linecap="round"/>
</g>
		<g transform="matrix(1 0 0 1 14.45 -10.9655)" id="Layer_1">
<path style="stroke: rgb(0,0,0); stroke-width: 2; stroke-dasharray: none; stroke-linecap: round; stroke-dashoffset: 0; stroke-linejoin: round; stroke-miterlimit: 10; is-custom-font: none; font-file-url: none; fill: none; fill-rule: nonzero; opacity: 1;" transform=" translate(-46.45, -21.0345)" d="M 42 22 c 0 0 2.7 1.7 5 1 s 3.9 -4.1 3.9 -4.1" stroke-linecap="round"/>
</g>
		<g transform="matrix(1 0 0 1 11.65 9.45)" id="Layer_1">
<path style="stroke: rgb(0,0,0); stroke-width: 2; stroke-dasharray: none; stroke-linecap: round; stroke-dashoffset: 0; stroke-linejoin: round; stroke-miterlimit: 10; is-custom-font: none; font-file-url: none; fill: none; fill-rule: nonzero; opacity: 1;" transform=" translate(-43.65, -41.45)" d="M 40 44 c 0 0 1.3 -5.1 7.3 -5.1" stroke-linecap="round"/>
</g>
</g>
</g>
<g transform="matrix(1 0 0 1 500 320.308)" style="" id="292618">
		
<path xml:space="preserve" font-family="Lato" font-size="99" font-style="normal" font-weight="bold" style="stroke: none; stroke-width: 1; stroke-dasharray: none; stroke-linecap: butt; stroke-dashoffset: 0; stroke-linejoin: miter; stroke-miterlimit: 4; is-custom-font: none; font-file-url: none; fill: rgb(0,0,0); fill-rule: nonzero; opacity: 1; white-space: pre;" d="M-230.58-40.48L-174.10-40.48L-174.10-29.54L-195.63-29.54L-195.63 31.10L-208.95 31.10L-208.95-29.54L-230.58-29.54L-230.58-40.48ZM-175.29-19.69L-163.06-19.69L-163.06 12.59Q-163.06 17.24-160.91 19.79Q-158.76 22.34-154.45 22.34L-154.45 22.34Q-151.28 22.34-148.51 20.93Q-145.74 19.52-143.26 17.04L-143.26 17.04L-143.26-19.69L-131.04-19.69L-131.04 31.10L-138.51 31.10Q-140.89 31.10-141.63 28.87L-141.63 28.87L-142.47 24.81Q-144.05 26.40-145.74 27.71Q-147.42 29.02-149.33 29.94Q-151.23 30.85-153.43 31.37Q-155.64 31.89-158.16 31.89L-158.16 31.89Q-162.32 31.89-165.51 30.48Q-168.71 29.07-170.88 26.50Q-173.06 23.92-174.17 20.38Q-175.29 16.84-175.29 12.59L-175.29 12.59L-175.29-19.69ZM-105.74 31.10L-117.97 31.10L-117.97-19.69L-110.49-19.69Q-108.12-19.69-107.37-17.46L-107.37-17.46L-106.53-13.45Q-105.00-15.03-103.29-16.32Q-101.58-17.61-99.68-18.55Q-97.77-19.49-95.59-19.98Q-93.42-20.48-90.84-20.48L-90.84-20.48Q-86.68-20.48-83.47-19.07Q-80.25-17.66-78.10-15.11Q-75.94-12.56-74.83-9.02Q-73.71-5.48-73.71-1.22L-73.71-1.22L-73.71 31.10L-85.94 31.10L-85.94-1.22Q-85.94-5.88-88.09-8.43Q-90.25-10.98-94.55-10.98L-94.55-10.98Q-97.72-10.98-100.49-9.54Q-103.27-8.10-105.74-5.63L-105.74-5.63L-105.74 31.10ZM-40.70-20.48L-40.70-20.48Q-35.90-20.48-31.86-18.94Q-27.83-17.41-24.91-14.46Q-21.99-11.52-20.35-7.24Q-18.72-2.96-18.72 2.54L-18.72 2.54Q-18.72 3.92-18.84 4.84Q-18.97 5.76-19.29 6.28Q-19.61 6.80-20.16 7.02Q-20.70 7.24-21.54 7.24L-21.54 7.24L-52.92 7.24Q-52.38 15.06-48.72 18.72Q-45.05 22.39-39.02 22.39L-39.02 22.39Q-36.05 22.39-33.89 21.69Q-31.74 21.00-30.13 20.16Q-28.52 19.32-27.31 18.63Q-26.10 17.93-24.96 17.93L-24.96 17.93Q-24.21 17.93-23.67 18.23Q-23.13 18.53-22.73 19.07L-22.73 19.07L-19.17 23.53Q-21.20 25.90-23.72 27.51Q-26.24 29.12-28.99 30.09Q-31.74 31.05-34.58 31.45Q-37.43 31.84-40.10 31.84L-40.10 31.84Q-45.40 31.84-49.95 30.09Q-54.51 28.33-57.87 24.89Q-61.24 21.45-63.17 16.37Q-65.10 11.30-65.10 4.62L-65.10 4.62Q-65.10-0.58-63.42-5.16Q-61.74-9.74-58.59-13.13Q-55.45-16.52-50.92-18.50Q-46.39-20.48-40.70-20.48ZM-40.45-11.72L-40.45-11.72Q-45.80-11.72-48.82-8.70Q-51.84-5.68-52.68-0.13L-52.68-0.13L-29.71-0.13Q-29.71-2.51-30.35-4.61Q-31.00-6.72-32.33-8.30Q-33.67-9.89-35.70-10.80Q-37.73-11.72-40.45-11.72ZM4.99-40.48L61.47-40.48L61.47-29.54L39.94-29.54L39.94 31.10L26.62 31.10L26.62-29.54L4.99-29.54L4.99-40.48ZM73.55 31.10L61.32 31.10L61.32-19.69L68.50-19.69Q70.38-19.69 71.12-18.99Q71.86-18.30 72.11-16.62L72.11-16.62L72.85-10.48Q75.58-15.18 79.24-17.91Q82.90-20.63 87.46-20.63L87.46-20.63Q91.22-20.63 93.69-18.90L93.69-18.90L92.11-9.74Q91.96-8.85 91.47-8.48Q90.97-8.10 90.13-8.10L90.13-8.10Q89.39-8.10 88.10-8.45Q86.81-8.80 84.69-8.80L84.69-8.80Q80.87-8.80 78.15-6.69Q75.43-4.59 73.55-0.53L73.55-0.53L73.55 31.10ZM102.55-19.69L114.78-19.69L114.78 31.10L102.55 31.10L102.55-19.69ZM116.61-34.49L116.61-34.49Q116.61-32.90 115.97-31.52Q115.33-30.13 114.26-29.09Q113.20-28.05 111.76-27.43Q110.33-26.82 108.69-26.82L108.69-26.82Q107.11-26.82 105.70-27.43Q104.29-28.05 103.25-29.09Q102.21-30.13 101.59-31.52Q100.97-32.90 100.97-34.49L100.97-34.49Q100.97-36.12 101.59-37.56Q102.21-38.99 103.25-40.03Q104.29-41.07 105.70-41.69Q107.11-42.31 108.69-42.31L108.69-42.31Q110.33-42.31 111.76-41.69Q113.20-41.07 114.26-40.03Q115.33-38.99 115.97-37.56Q116.61-36.12 116.61-34.49ZM174.18-19.69L154.03 31.10L142.95 31.10L122.75-19.69L132.90-19.69Q134.23-19.69 135.15-19.04Q136.07-18.40 136.41-17.41L136.41-17.41L146.21 9.72Q147.06 12.09 147.62 14.37Q148.19 16.65 148.64 18.92L148.64 18.92Q149.08 16.65 149.65 14.37Q150.22 12.09 151.11 9.72L151.11 9.72L161.16-17.41Q161.51-18.40 162.40-19.04Q163.29-19.69 164.53-19.69L164.53-19.69L174.18-19.69ZM182.20-19.69L194.43-19.69L194.43 31.10L182.20 31.10L182.20-19.69ZM196.26-34.49L196.26-34.49Q196.26-32.90 195.61-31.52Q194.97-30.13 193.91-29.09Q192.84-28.05 191.41-27.43Q189.97-26.82 188.34-26.82L188.34-26.82Q186.75-26.82 185.34-27.43Q183.93-28.05 182.89-29.09Q181.85-30.13 181.24-31.52Q180.62-32.90 180.62-34.49L180.62-34.49Q180.62-36.12 181.24-37.56Q181.85-38.99 182.89-40.03Q183.93-41.07 185.34-41.69Q186.75-42.31 188.34-42.31L188.34-42.31Q189.97-42.31 191.41-41.69Q192.84-41.07 193.91-40.03Q194.97-38.99 195.61-37.56Q196.26-36.12 196.26-34.49ZM248.04-0.98L248.04 31.10L242.54 31.10Q240.81 31.10 239.82 30.58Q238.83 30.06 238.33 28.48L238.33 28.48L237.24 24.86Q235.31 26.60 233.46 27.91Q231.60 29.22 229.62 30.11Q227.64 31.00 225.41 31.45Q223.19 31.89 220.46 31.89L220.46 31.89Q217.25 31.89 214.52 31.03Q211.80 30.16 209.85 28.43Q207.89 26.69 206.80 24.12Q205.71 21.55 205.71 18.13L205.71 18.13Q205.71 15.26 207.22 12.46Q208.73 9.67 212.25 7.41Q215.76 5.16 221.60 3.68Q227.44 2.19 236.11 1.99L236.11 1.99L236.11-0.98Q236.11-6.07 233.95-8.52Q231.80-10.98 227.69-10.98L227.69-10.98Q224.72-10.98 222.74-10.28Q220.76-9.59 219.30-8.72Q217.84-7.86 216.60-7.16Q215.37-6.47 213.88-6.47L213.88-6.47Q212.64-6.47 211.75-7.11Q210.86-7.76 210.32-8.70L210.32-8.70L208.09-12.61Q216.85-20.63 229.23-20.63L229.23-20.63Q233.68-20.63 237.17-19.17Q240.66-17.71 243.09-15.11Q245.51-12.51 246.77-8.90Q248.04-5.28 248.04-0.98L248.04-0.98ZM224.28 23.48L224.28 23.48Q226.16 23.48 227.74 23.13Q229.32 22.78 230.74 22.09Q232.15 21.40 233.46 20.38Q234.77 19.37 236.11 17.98L236.11 17.98L236.11 9.42Q230.76 9.67 227.17 10.33Q223.58 11.00 221.40 12.04Q219.23 13.08 218.31 14.47Q217.39 15.85 217.39 17.49L217.39 17.49Q217.39 20.70 219.30 22.09Q221.21 23.48 224.28 23.48Z"/></g>
</svg>